<svg width="203" height="36" viewBox="0 0 203 36" fill="none" xmlns="http://www.w3.org/2000/svg">
<path d="M26.32 8.48L21.8 28H17.52L13.56 11.44L9.56 28H5.28L0.8 8.48H4.4L7.56 25L11.36 8.48H15.76L19.52 25L22.72 8.48H26.32ZM36.0094 8C38.2494 8 39.956 8.61333 41.1294 9.84C42.3027 11.0667 42.8894 12.84 42.8894 15.16V19.28H32.6094V21.64C32.6094 23 32.9294 23.9867 33.5694 24.6C34.236 25.1867 35.276 25.48 36.6894 25.48C38.076 25.48 39.8094 25.2667 41.8894 24.84L41.9694 27.8C39.4894 28.2533 37.716 28.48 36.6494 28.48C34.0094 28.48 32.1027 27.9067 30.9294 26.76C29.7827 25.6133 29.2094 23.84 29.2094 21.44V15.16C29.2094 12.84 29.7694 11.0667 30.8894 9.84C32.036 8.61333 33.7427 8 36.0094 8ZM36.0094 10.84C34.9694 10.84 34.1427 11.1733 33.5294 11.84C32.916 12.48 32.6094 13.4133 32.6094 14.64V16.56H39.4894V14.76C39.4894 13.48 39.1694 12.5067 38.5294 11.84C37.916 11.1733 37.076 10.84 36.0094 10.84ZM60.64 28H57.4V24.84C55.8 27.2667 53.9733 28.48 51.92 28.48C50.2667 28.48 49 27.92 48.12 26.8C47.24 25.6533 46.8 23.9867 46.8 21.8V14.68C46.8 12.5733 47.28 10.9333 48.24 9.76C49.2267 8.58667 50.6267 8 52.44 8C53.2133 8 54.0267 8.2 54.88 8.6C55.7333 8.97333 56.52 9.44 57.24 10V0.679999H60.64V28ZM53.2 11.04C52.24 11.04 51.4933 11.3867 50.96 12.08C50.4533 12.7467 50.2 13.7733 50.2 15.16V21.36C50.2 24.08 51.04 25.44 52.72 25.44C53.52 25.44 54.3067 25.1333 55.08 24.52C55.88 23.88 56.6 22.9867 57.24 21.84V13.04C56.68 12.4533 56.0133 11.9733 55.24 11.6C54.4933 11.2267 53.8133 11.04 53.2 11.04ZM79.3634 28H76.1234V24.84C74.5234 27.2667 72.6968 28.48 70.6434 28.48C68.9901 28.48 67.7234 27.92 66.8434 26.8C65.9634 25.6533 65.5234 23.9867 65.5234 21.8V14.68C65.5234 12.5733 66.0034 10.9333 66.9634 9.76C67.9501 8.58667 69.3501 8 71.1634 8C71.9368 8 72.7501 8.2 73.6034 8.6C74.4568 8.97333 75.2434 9.44 75.9634 10V0.679999H79.3634V28ZM71.9234 11.04C70.9634 11.04 70.2168 11.3867 69.6834 12.08C69.1768 12.7467 68.9234 13.7733 68.9234 15.16V21.36C68.9234 24.08 69.7634 25.44 71.4434 25.44C72.2434 25.44 73.0301 25.1333 73.8034 24.52C74.6034 23.88 75.3234 22.9867 75.9634 21.84V13.04C75.4034 12.4533 74.7368 11.9733 73.9634 11.6C73.2168 11.2267 72.5368 11.04 71.9234 11.04ZM88.0469 8.48V28H84.6469V8.48H88.0469ZM86.3269 0.599998C87.0469 0.599998 87.5935 0.759998 87.9669 1.08C88.3669 1.4 88.5669 1.85333 88.5669 2.44V3.6C88.5669 4.18667 88.3669 4.64 87.9669 4.96C87.5935 5.25333 87.0469 5.4 86.3269 5.4C85.6335 5.4 85.0869 5.25333 84.6869 4.96C84.3135 4.64 84.1269 4.18667 84.1269 3.6V2.44C84.1269 1.85333 84.3135 1.4 84.6869 1.08C85.0869 0.759998 85.6335 0.599998 86.3269 0.599998ZM101.851 8C103.558 8 104.865 8.58667 105.771 9.76C106.705 10.9067 107.171 12.5467 107.171 14.68V28H103.771V15.16C103.771 12.4933 102.905 11.16 101.171 11.16C100.398 11.16 99.6113 11.4533 98.8113 12.04C98.0113 12.6267 97.3179 13.4267 96.7313 14.44V28H93.3313V8.48H96.5313V11.4C97.2513 10.3067 98.0513 9.46667 98.9313 8.88C99.8379 8.29333 100.811 8 101.851 8ZM118.884 8C120.058 8 121.124 8.17333 122.084 8.52L128.324 8.44V11.44L125.044 11.36C125.498 12.32 125.724 13.32 125.724 14.36V15.24C125.724 17.1867 125.124 18.76 123.924 19.96C122.724 21.1333 121.044 21.72 118.884 21.72C117.498 21.72 116.364 21.5867 115.484 21.32C114.898 21.8 114.604 22.3467 114.604 22.96V23.2C114.604 23.6267 114.738 23.9467 115.004 24.16C115.271 24.3467 115.791 24.4667 116.564 24.52L122.524 24.96C123.751 25.0667 124.738 25.5333 125.484 26.36C126.258 27.16 126.644 28.1733 126.644 29.4V30.88C126.644 32.0267 126.418 32.96 125.964 33.68C125.511 34.4 124.671 34.9467 123.444 35.32C122.244 35.6933 120.511 35.88 118.244 35.88C117.391 35.88 116.378 35.7867 115.204 35.6C114.058 35.4133 112.964 35.1733 111.924 34.88L112.044 31.72C114.524 32.5467 116.631 32.96 118.364 32.96C119.804 32.96 120.871 32.8667 121.564 32.68C122.284 32.52 122.751 32.2667 122.964 31.92C123.204 31.5733 123.324 31.0533 123.324 30.36V30.04C123.324 29.4267 123.151 28.9467 122.804 28.6C122.484 28.2533 122.018 28.0667 121.404 28.04L115.404 27.64C114.124 27.56 113.151 27.2 112.484 26.56C111.818 25.92 111.484 25.0533 111.484 23.96V23.16C111.484 22.5733 111.631 22 111.924 21.44C112.244 20.88 112.698 20.3867 113.284 19.96C112.831 19.4533 112.498 18.8133 112.284 18.04C112.098 17.24 112.004 16.2667 112.004 15.12V14.24C112.004 12.3467 112.591 10.84 113.764 9.72C114.938 8.57333 116.644 8 118.884 8ZM118.884 10.84C117.764 10.84 116.898 11.1333 116.284 11.72C115.698 12.28 115.404 13.0933 115.404 14.16V15.48C115.404 16.4667 115.484 17.2 115.644 17.68C115.831 18.1333 116.151 18.4533 116.604 18.64C117.058 18.8 117.738 18.88 118.644 18.88C119.871 18.88 120.791 18.5867 121.404 18C122.018 17.4133 122.324 16.5733 122.324 15.48V14.28C122.324 13.16 122.164 12.1867 121.844 11.36C121.524 11.2267 121.084 11.1067 120.524 11C119.991 10.8933 119.444 10.84 118.884 10.84ZM146.615 8C148.322 8 149.629 8.58667 150.535 9.76C151.469 10.9067 151.935 12.5467 151.935 14.68V28H148.535V15.16C148.535 12.4933 147.669 11.16 145.935 11.16C145.162 11.16 144.375 11.4533 143.575 12.04C142.775 12.6267 142.082 13.4267 141.495 14.44V28H138.095V8.48H141.295V11.4C142.015 10.3067 142.815 9.46667 143.695 8.88C144.602 8.29333 145.575 8 146.615 8ZM163.888 8C166.262 8 168.022 8.64 169.168 9.92C170.342 11.1733 170.928 12.96 170.928 15.28V21.2C170.928 23.52 170.342 25.32 169.168 26.6C168.022 27.8533 166.262 28.48 163.888 28.48C161.515 28.48 159.742 27.8533 158.568 26.6C157.422 25.32 156.848 23.52 156.848 21.2V15.28C156.848 12.96 157.422 11.1733 158.568 9.92C159.742 8.64 161.515 8 163.888 8ZM163.888 10.84C162.742 10.84 161.848 11.2 161.208 11.92C160.568 12.64 160.248 13.6667 160.248 15V21.48C160.248 22.8133 160.568 23.84 161.208 24.56C161.848 25.28 162.742 25.64 163.888 25.64C165.035 25.64 165.928 25.28 166.568 24.56C167.208 23.84 167.528 22.8133 167.528 21.48V14.96C167.528 13.6267 167.208 12.6133 166.568 11.92C165.928 11.2 165.035 10.84 163.888 10.84ZM179.933 8.48H185.133V11.28H179.933V22.72C179.933 23.7333 180.133 24.4667 180.533 24.92C180.959 25.3467 181.613 25.56 182.493 25.56C183.613 25.56 184.706 25.4267 185.773 25.16L185.853 28C184.679 28.32 183.613 28.48 182.653 28.48C180.519 28.48 178.959 28.0133 177.973 27.08C177.013 26.12 176.533 24.5733 176.533 22.44V11.28H173.733V8.48H176.533L177.173 3.28H179.933V8.48ZM195.548 8C197.788 8 199.495 8.61333 200.668 9.84C201.842 11.0667 202.428 12.84 202.428 15.16V19.28H192.148V21.64C192.148 23 192.468 23.9867 193.108 24.6C193.775 25.1867 194.815 25.48 196.228 25.48C197.615 25.48 199.348 25.2667 201.428 24.84L201.508 27.8C199.028 28.2533 197.255 28.48 196.188 28.48C193.548 28.48 191.642 27.9067 190.468 26.76C189.322 25.6133 188.748 23.84 188.748 21.44V15.16C188.748 12.84 189.308 11.0667 190.428 9.84C191.575 8.61333 193.282 8 195.548 8ZM195.548 10.84C194.508 10.84 193.682 11.1733 193.068 11.84C192.455 12.48 192.148 13.4133 192.148 14.64V16.56H199.028V14.76C199.028 13.48 198.708 12.5067 198.068 11.84C197.455 11.1733 196.615 10.84 195.548 10.84Z" fill="#616161"/>
</svg>
